<mxfile host="app.diagrams.net" agent="Mozilla/5.0 (Windows NT 10.0; Win64; x64) AppleWebKit/537.36 (KHTML, like Gecko) Chrome/140.0.0.0 Safari/537.36" version="28.2.5">
  <diagram name="Page-1" id="MBPPT8XmERE-SGZNv0NV">
    <mxGraphModel dx="1210" dy="1102" grid="1" gridSize="10" guides="1" tooltips="1" connect="1" arrows="1" fold="1" page="1" pageScale="1" pageWidth="850" pageHeight="1100" math="0" shadow="0">
      <root>
        <mxCell id="0" />
        <mxCell id="1" parent="0" />
        <mxCell id="wIf7DAMdGKU4eKdJtj5m-1" value="Client&lt;br&gt;Win/Mac/IOS" style="rounded=1;whiteSpace=wrap;html=1;" parent="1" vertex="1">
          <mxGeometry x="120" y="110" width="560" height="60" as="geometry" />
        </mxCell>
        <mxCell id="wIf7DAMdGKU4eKdJtj5m-3" value="" style="endArrow=classic;html=1;rounded=0;exitX=0.109;exitY=1.037;exitDx=0;exitDy=0;exitPerimeter=0;" parent="1" source="wIf7DAMdGKU4eKdJtj5m-1" edge="1">
          <mxGeometry width="50" height="50" relative="1" as="geometry">
            <mxPoint x="125" y="360" as="sourcePoint" />
            <mxPoint x="180" y="220" as="targetPoint" />
          </mxGeometry>
        </mxCell>
        <mxCell id="wIf7DAMdGKU4eKdJtj5m-31" value="upload" style="edgeLabel;html=1;align=center;verticalAlign=middle;resizable=0;points=[];" parent="wIf7DAMdGKU4eKdJtj5m-3" vertex="1" connectable="0">
          <mxGeometry x="-0.4166" y="-1" relative="1" as="geometry">
            <mxPoint as="offset" />
          </mxGeometry>
        </mxCell>
        <mxCell id="wIf7DAMdGKU4eKdJtj5m-4" value="API Gateway" style="rounded=1;whiteSpace=wrap;html=1;" parent="1" vertex="1">
          <mxGeometry x="125" y="220" width="120" height="60" as="geometry" />
        </mxCell>
        <mxCell id="wIf7DAMdGKU4eKdJtj5m-6" value="" style="endArrow=classic;html=1;rounded=0;exitX=0.832;exitY=0.983;exitDx=0;exitDy=0;exitPerimeter=0;entryX=0.5;entryY=0;entryDx=0;entryDy=0;" parent="1" target="wIf7DAMdGKU4eKdJtj5m-7" edge="1">
          <mxGeometry width="50" height="50" relative="1" as="geometry">
            <mxPoint x="459.52" y="170.00000000000003" as="sourcePoint" />
            <mxPoint x="435" y="221.01999999999998" as="targetPoint" />
          </mxGeometry>
        </mxCell>
        <mxCell id="wIf7DAMdGKU4eKdJtj5m-32" value="download" style="edgeLabel;html=1;align=center;verticalAlign=middle;resizable=0;points=[];" parent="wIf7DAMdGKU4eKdJtj5m-6" vertex="1" connectable="0">
          <mxGeometry x="-0.2391" y="2" relative="1" as="geometry">
            <mxPoint as="offset" />
          </mxGeometry>
        </mxCell>
        <mxCell id="wIf7DAMdGKU4eKdJtj5m-37" value="" style="edgeStyle=orthogonalEdgeStyle;rounded=0;orthogonalLoop=1;jettySize=auto;html=1;" parent="1" source="wIf7DAMdGKU4eKdJtj5m-7" target="wIf7DAMdGKU4eKdJtj5m-29" edge="1">
          <mxGeometry relative="1" as="geometry" />
        </mxCell>
        <mxCell id="wIf7DAMdGKU4eKdJtj5m-7" value="API Gateway" style="rounded=1;whiteSpace=wrap;html=1;" parent="1" vertex="1">
          <mxGeometry x="400" y="219.99999999999997" width="120" height="60" as="geometry" />
        </mxCell>
        <mxCell id="wIf7DAMdGKU4eKdJtj5m-8" value="Assemble" style="rounded=1;whiteSpace=wrap;html=1;" parent="1" vertex="1">
          <mxGeometry x="560" y="340" width="120" height="60" as="geometry" />
        </mxCell>
        <mxCell id="wIf7DAMdGKU4eKdJtj5m-15" value="" style="rounded=1;whiteSpace=wrap;html=1;" parent="1" vertex="1">
          <mxGeometry x="120" y="530" width="400" height="140" as="geometry" />
        </mxCell>
        <mxCell id="wIf7DAMdGKU4eKdJtj5m-11" value="Metadata DB" style="shape=cylinder3;whiteSpace=wrap;html=1;boundedLbl=1;backgroundOutline=1;size=15;" parent="1" vertex="1">
          <mxGeometry x="425" y="600" width="60" height="60" as="geometry" />
        </mxCell>
        <mxCell id="wIf7DAMdGKU4eKdJtj5m-12" value="Cloud Storage" style="ellipse;shape=cloud;whiteSpace=wrap;html=1;" parent="1" vertex="1">
          <mxGeometry x="125" y="590" width="120" height="80" as="geometry" />
        </mxCell>
        <mxCell id="wIf7DAMdGKU4eKdJtj5m-17" value="" style="endArrow=classic;html=1;rounded=0;exitX=0.5;exitY=1;exitDx=0;exitDy=0;entryX=0.165;entryY=0.004;entryDx=0;entryDy=0;entryPerimeter=0;" parent="1" target="wIf7DAMdGKU4eKdJtj5m-15" edge="1">
          <mxGeometry width="50" height="50" relative="1" as="geometry">
            <mxPoint x="185" y="510" as="sourcePoint" />
            <mxPoint x="40" y="450" as="targetPoint" />
          </mxGeometry>
        </mxCell>
        <mxCell id="wIf7DAMdGKU4eKdJtj5m-18" value="Long term storage" style="rounded=1;whiteSpace=wrap;html=1;" parent="1" vertex="1">
          <mxGeometry x="120" y="720" width="400" height="60" as="geometry" />
        </mxCell>
        <mxCell id="wIf7DAMdGKU4eKdJtj5m-19" value="" style="endArrow=classic;html=1;rounded=0;exitX=0.197;exitY=1.001;exitDx=0;exitDy=0;exitPerimeter=0;entryX=0.197;entryY=0.003;entryDx=0;entryDy=0;entryPerimeter=0;" parent="1" source="wIf7DAMdGKU4eKdJtj5m-15" target="wIf7DAMdGKU4eKdJtj5m-18" edge="1">
          <mxGeometry width="50" height="50" relative="1" as="geometry">
            <mxPoint x="160" y="690" as="sourcePoint" />
            <mxPoint x="199" y="690" as="targetPoint" />
          </mxGeometry>
        </mxCell>
        <mxCell id="wIf7DAMdGKU4eKdJtj5m-20" value="Notification Service" style="rounded=1;whiteSpace=wrap;html=1;" parent="1" vertex="1">
          <mxGeometry x="285" y="460" width="70" height="50" as="geometry" />
        </mxCell>
        <mxCell id="wIf7DAMdGKU4eKdJtj5m-21" value="" style="endArrow=classic;html=1;rounded=0;exitX=1;exitY=0.5;exitDx=0;exitDy=0;entryX=0;entryY=0.5;entryDx=0;entryDy=0;" parent="1" target="wIf7DAMdGKU4eKdJtj5m-20" edge="1">
          <mxGeometry width="50" height="50" relative="1" as="geometry">
            <mxPoint x="245" y="485" as="sourcePoint" />
            <mxPoint x="360" y="350" as="targetPoint" />
          </mxGeometry>
        </mxCell>
        <mxCell id="wIf7DAMdGKU4eKdJtj5m-25" value="" style="endArrow=classic;html=1;rounded=0;exitX=0.5;exitY=1;exitDx=0;exitDy=0;" parent="1" source="wIf7DAMdGKU4eKdJtj5m-4" edge="1">
          <mxGeometry width="50" height="50" relative="1" as="geometry">
            <mxPoint x="260" y="290" as="sourcePoint" />
            <mxPoint x="185" y="300" as="targetPoint" />
          </mxGeometry>
        </mxCell>
        <mxCell id="wIf7DAMdGKU4eKdJtj5m-27" value="De-compression&lt;br&gt;Decryption" style="rounded=1;whiteSpace=wrap;html=1;" parent="1" vertex="1">
          <mxGeometry x="560" y="220" width="120" height="60" as="geometry" />
        </mxCell>
        <mxCell id="wIf7DAMdGKU4eKdJtj5m-28" value="" style="endArrow=classic;html=1;rounded=0;entryX=0.5;entryY=0;entryDx=0;entryDy=0;" parent="1" target="wIf7DAMdGKU4eKdJtj5m-29" edge="1">
          <mxGeometry width="50" height="50" relative="1" as="geometry">
            <mxPoint x="460" y="300" as="sourcePoint" />
            <mxPoint x="463" y="410" as="targetPoint" />
          </mxGeometry>
        </mxCell>
        <mxCell id="wIf7DAMdGKU4eKdJtj5m-29" value="Storage Service" style="rounded=1;whiteSpace=wrap;html=1;" parent="1" vertex="1">
          <mxGeometry x="400" y="340" width="120" height="60" as="geometry" />
        </mxCell>
        <mxCell id="wIf7DAMdGKU4eKdJtj5m-30" value="" style="endArrow=classic;html=1;rounded=0;entryX=0.354;entryY=1.05;entryDx=0;entryDy=0;exitX=0.5;exitY=0;exitDx=0;exitDy=0;entryPerimeter=0;" parent="1" source="wIf7DAMdGKU4eKdJtj5m-20" target="wIf7DAMdGKU4eKdJtj5m-1" edge="1">
          <mxGeometry width="50" height="50" relative="1" as="geometry">
            <mxPoint x="310" y="350" as="sourcePoint" />
            <mxPoint x="360" y="300" as="targetPoint" />
          </mxGeometry>
        </mxCell>
        <mxCell id="wIf7DAMdGKU4eKdJtj5m-33" value="" style="endArrow=classic;html=1;rounded=0;entryX=0.5;entryY=1;entryDx=0;entryDy=0;" parent="1" target="wIf7DAMdGKU4eKdJtj5m-29" edge="1">
          <mxGeometry width="50" height="50" relative="1" as="geometry">
            <mxPoint x="460" y="530" as="sourcePoint" />
            <mxPoint x="620" y="490" as="targetPoint" />
          </mxGeometry>
        </mxCell>
        <mxCell id="wIf7DAMdGKU4eKdJtj5m-34" value="" style="endArrow=classic;html=1;rounded=0;exitX=1;exitY=0.5;exitDx=0;exitDy=0;entryX=0;entryY=0.5;entryDx=0;entryDy=0;" parent="1" source="wIf7DAMdGKU4eKdJtj5m-29" target="wIf7DAMdGKU4eKdJtj5m-8" edge="1">
          <mxGeometry width="50" height="50" relative="1" as="geometry">
            <mxPoint x="680" y="550" as="sourcePoint" />
            <mxPoint x="730" y="500" as="targetPoint" />
          </mxGeometry>
        </mxCell>
        <mxCell id="wIf7DAMdGKU4eKdJtj5m-35" value="" style="endArrow=classic;html=1;rounded=0;exitX=0.5;exitY=0;exitDx=0;exitDy=0;entryX=0.5;entryY=1;entryDx=0;entryDy=0;" parent="1" source="wIf7DAMdGKU4eKdJtj5m-8" target="wIf7DAMdGKU4eKdJtj5m-27" edge="1">
          <mxGeometry width="50" height="50" relative="1" as="geometry">
            <mxPoint x="760" y="390" as="sourcePoint" />
            <mxPoint x="810" y="340" as="targetPoint" />
          </mxGeometry>
        </mxCell>
        <mxCell id="wIf7DAMdGKU4eKdJtj5m-36" value="" style="endArrow=classic;html=1;rounded=0;exitX=0.5;exitY=0;exitDx=0;exitDy=0;" parent="1" source="wIf7DAMdGKU4eKdJtj5m-27" edge="1">
          <mxGeometry width="50" height="50" relative="1" as="geometry">
            <mxPoint x="620" y="250" as="sourcePoint" />
            <mxPoint x="620" y="170" as="targetPoint" />
          </mxGeometry>
        </mxCell>
        <mxCell id="wIf7DAMdGKU4eKdJtj5m-38" value="Metadata Cache" style="rounded=1;whiteSpace=wrap;html=1;" parent="1" vertex="1">
          <mxGeometry x="415" y="545" width="80" height="40" as="geometry" />
        </mxCell>
        <mxCell id="wIf7DAMdGKU4eKdJtj5m-39" value="Chunk Cache" style="rounded=1;whiteSpace=wrap;html=1;" parent="1" vertex="1">
          <mxGeometry x="145" y="545" width="80" height="40" as="geometry" />
        </mxCell>
        <mxCell id="Nsm7VlbRt4dVgcTsbUhO-1" value="" style="endArrow=classic;html=1;rounded=0;entryX=0.5;entryY=0;entryDx=0;entryDy=0;" parent="1" target="wIf7DAMdGKU4eKdJtj5m-24" edge="1">
          <mxGeometry width="50" height="50" relative="1" as="geometry">
            <mxPoint x="185" y="380" as="sourcePoint" />
            <mxPoint x="185" y="450" as="targetPoint" />
          </mxGeometry>
        </mxCell>
        <mxCell id="wIf7DAMdGKU4eKdJtj5m-24" value="Chunker&lt;br style=&quot;border-color: var(--border-color);&quot;&gt;4mb chunks/blocks&lt;br style=&quot;border-color: var(--border-color);&quot;&gt;Deduplication&lt;br&gt;Compression&lt;br&gt;Encryption" style="rounded=1;whiteSpace=wrap;html=1;" parent="1" vertex="1">
          <mxGeometry x="125" y="420" width="120" height="90" as="geometry" />
        </mxCell>
        <mxCell id="Nsm7VlbRt4dVgcTsbUhO-2" value="PreProcessor" style="rounded=1;whiteSpace=wrap;html=1;" parent="1" vertex="1">
          <mxGeometry x="125" y="300" width="120" height="30" as="geometry" />
        </mxCell>
        <mxCell id="Nsm7VlbRt4dVgcTsbUhO-4" value="Temp Storage" style="shape=cylinder3;whiteSpace=wrap;html=1;boundedLbl=1;backgroundOutline=1;size=15;" parent="1" vertex="1">
          <mxGeometry x="20" y="280" width="60" height="170" as="geometry" />
        </mxCell>
        <mxCell id="Nsm7VlbRt4dVgcTsbUhO-5" value="" style="endArrow=classic;html=1;rounded=0;exitX=0;exitY=0.5;exitDx=0;exitDy=0;" parent="1" source="Nsm7VlbRt4dVgcTsbUhO-2" edge="1">
          <mxGeometry width="50" height="50" relative="1" as="geometry">
            <mxPoint x="130" y="400" as="sourcePoint" />
            <mxPoint x="80" y="315" as="targetPoint" />
          </mxGeometry>
        </mxCell>
        <mxCell id="Nsm7VlbRt4dVgcTsbUhO-7" value="Job Queue" style="rounded=1;whiteSpace=wrap;html=1;" parent="1" vertex="1">
          <mxGeometry x="125" y="350" width="120" height="30" as="geometry" />
        </mxCell>
        <mxCell id="Nsm7VlbRt4dVgcTsbUhO-8" value="" style="endArrow=classic;html=1;rounded=0;exitX=0.5;exitY=1;exitDx=0;exitDy=0;entryX=0.5;entryY=0;entryDx=0;entryDy=0;" parent="1" source="Nsm7VlbRt4dVgcTsbUhO-2" target="Nsm7VlbRt4dVgcTsbUhO-7" edge="1">
          <mxGeometry width="50" height="50" relative="1" as="geometry">
            <mxPoint x="400" y="460" as="sourcePoint" />
            <mxPoint x="450" y="410" as="targetPoint" />
          </mxGeometry>
        </mxCell>
        <mxCell id="Nsm7VlbRt4dVgcTsbUhO-9" value="" style="endArrow=classic;html=1;rounded=0;exitX=1;exitY=1;exitDx=0;exitDy=-15;exitPerimeter=0;entryX=0.002;entryY=0.18;entryDx=0;entryDy=0;entryPerimeter=0;" parent="1" source="Nsm7VlbRt4dVgcTsbUhO-4" target="wIf7DAMdGKU4eKdJtj5m-24" edge="1">
          <mxGeometry width="50" height="50" relative="1" as="geometry">
            <mxPoint x="-280" y="430" as="sourcePoint" />
            <mxPoint x="-230" y="380" as="targetPoint" />
          </mxGeometry>
        </mxCell>
        <mxCell id="NToE9WNLfPGpyUW-ZeQV-1" value="Storage&lt;div&gt;1. Store raw bytes of the files&lt;/div&gt;&lt;div&gt;2. Store meta data of the files&lt;/div&gt;" style="rounded=0;whiteSpace=wrap;html=1;align=left;" vertex="1" parent="1">
          <mxGeometry x="40" y="820" width="200" height="50" as="geometry" />
        </mxCell>
        <mxCell id="NToE9WNLfPGpyUW-ZeQV-3" value="2 Workflows&lt;br&gt;&lt;div&gt;1. Handle Upload&lt;/div&gt;&lt;div&gt;2. Sync Updates&lt;/div&gt;" style="rounded=0;whiteSpace=wrap;html=1;align=left;" vertex="1" parent="1">
          <mxGeometry x="310" y="820" width="200" height="50" as="geometry" />
        </mxCell>
        <mxCell id="NToE9WNLfPGpyUW-ZeQV-4" value="Enhancements to Handle Large File (&amp;gt; 10 MB)&lt;div&gt;1. Upload directly to S3 with pre-signed URL.&lt;/div&gt;&lt;div&gt;2. Chunk File&lt;/div&gt;&lt;div&gt;&lt;span style=&quot;white-space: pre;&quot;&gt;&#x9;&lt;/span&gt;2.1 Hash of each chunk to compare (Fingerprinting)\&lt;br&gt;&lt;/div&gt;&lt;div&gt;&lt;span style=&quot;white-space: pre;&quot;&gt;&#x9;&lt;/span&gt;2.2 Change Data Capture (S3 Notification)&lt;br&gt;&lt;/div&gt;" style="rounded=0;whiteSpace=wrap;html=1;align=left;" vertex="1" parent="1">
          <mxGeometry x="40" y="910" width="450" height="130" as="geometry" />
        </mxCell>
        <mxCell id="NToE9WNLfPGpyUW-ZeQV-5" value="CDN? No because user upload/download their own file" style="rounded=0;whiteSpace=wrap;html=1;" vertex="1" parent="1">
          <mxGeometry x="570" y="815" width="120" height="60" as="geometry" />
        </mxCell>
        <mxCell id="NToE9WNLfPGpyUW-ZeQV-6" value="Compression&lt;div&gt;Encryption&lt;/div&gt;" style="rounded=0;whiteSpace=wrap;html=1;" vertex="1" parent="1">
          <mxGeometry x="540" y="910" width="120" height="60" as="geometry" />
        </mxCell>
      </root>
    </mxGraphModel>
  </diagram>
</mxfile>
